<svg width="20" height="22" viewBox="0 0 20 22" fill="none" xmlns="http://www.w3.org/2000/svg">
<path d="M10.0797 11.8542C10.0569 11.8542 10.0342 11.8542 10.0068 11.8542C9.99772 11.8542 9.98861 11.8542 9.9795 11.8542C9.96583 11.8542 9.9476 11.8542 9.93394 11.8542C8.59908 11.8314 7.51936 11.3622 6.72209 10.4647C4.9681 8.48747 5.25968 5.09795 5.29157 4.77449C5.40546 2.34624 6.55353 1.18451 7.50113 0.642369C8.20728 0.236902 9.03189 0.0182232 9.95216 0H9.98405C9.98861 0 9.99772 0 10.0023 0H10.0296C10.5353 0 11.5285 0.0820046 12.4806 0.624146C13.4374 1.16629 14.6036 2.32802 14.7175 4.77449C14.7494 5.09795 15.041 8.48747 13.287 10.4647C12.4943 11.3622 11.4146 11.8314 10.0797 11.8542ZM13.5011 4.88838C13.5011 4.87472 13.4966 4.86105 13.4966 4.85194C13.3462 1.58542 11.0273 1.23462 10.0342 1.23462H10.0159C10.0068 1.23462 9.99316 1.23462 9.9795 1.23462C8.74943 1.26196 6.65831 1.7631 6.51708 4.85194C6.51708 4.8656 6.51708 4.87927 6.51252 4.88838C6.50797 4.92027 6.18906 8.01822 7.63781 9.6492C8.21184 10.2961 8.97722 10.615 9.98405 10.6241C9.99316 10.6241 9.99772 10.6241 10.0068 10.6241C10.0159 10.6241 10.0205 10.6241 10.0296 10.6241C11.0319 10.615 11.8018 10.2961 12.3713 9.6492C13.8155 8.02734 13.5057 4.91572 13.5011 4.88838Z" fill="#046EE3"/>
<path d="M0.644621 17.4761C0.644621 17.4715 0.644621 17.467 0.644621 17.4624C0.644621 17.426 0.649176 17.3895 0.649176 17.3485C0.676512 16.4465 0.735737 14.3371 2.71296 13.6629C2.72663 13.6583 2.74485 13.6537 2.75852 13.6492C4.81319 13.1253 6.52161 11.9408 6.53984 11.9271C6.81774 11.7312 7.20043 11.7995 7.39633 12.0774C7.59223 12.3553 7.52389 12.738 7.24599 12.9339C7.16854 12.9886 5.35533 14.2506 3.08653 14.8337C2.02503 15.2118 1.90658 16.3462 1.87469 17.385C1.87469 17.426 1.87469 17.4624 1.87013 17.4989C1.86558 17.9089 1.89291 18.5421 1.96581 18.9066C2.70385 19.3257 5.59679 20.7745 9.9977 20.7745C14.3804 20.7745 17.2915 19.3212 18.0341 18.902C18.107 18.5376 18.1389 17.9043 18.1298 17.4943C18.1298 17.4579 18.1253 17.4214 18.1253 17.3804C18.0934 16.3417 17.9749 15.2073 16.9134 14.8291C14.6446 14.246 12.8314 12.9795 12.754 12.9294C12.4761 12.7335 12.4077 12.3508 12.6036 12.0729C12.7995 11.795 13.1822 11.7266 13.4601 11.9225C13.4783 11.9362 15.1777 13.1207 17.2414 13.6446C17.2597 13.6492 17.2733 13.6537 17.287 13.6583C19.2642 14.3371 19.3234 16.4465 19.3508 17.344C19.3508 17.385 19.3508 17.4214 19.3553 17.4579C19.3553 17.4624 19.3553 17.467 19.3553 17.4715C19.3599 17.7084 19.3644 18.9248 19.123 19.5353C19.0774 19.6538 18.9954 19.754 18.8861 19.8223C18.7494 19.9134 15.4738 22 9.99314 22C4.5125 22 1.23688 19.9089 1.1002 19.8223C0.995419 19.754 0.908857 19.6538 0.8633 19.5353C0.635509 18.9294 0.640066 17.713 0.644621 17.4761Z" fill="#046EE3"/>
</svg>
