<svg width="55" height="47" viewBox="0 0 55 47" fill="none" xmlns="http://www.w3.org/2000/svg">
<path d="M13.7482 12.3684V13.107C13.7482 13.2944 13.675 13.4742 13.5445 13.6068C13.4141 13.7393 13.2371 13.8138 13.0526 13.8138H11.2267V19.8955C11.2267 20.0829 11.1535 20.2627 11.023 20.3953C10.8926 20.5278 10.7156 20.6023 10.5311 20.6023H9.48777C9.30329 20.6023 9.12636 20.5278 8.99592 20.3953C8.86547 20.2627 8.79218 20.0829 8.79218 19.8955V13.8102H6.9454C6.76092 13.8102 6.584 13.7358 6.45355 13.6032C6.3231 13.4707 6.24982 13.2909 6.24982 13.1035V12.3684C6.24982 12.181 6.3231 12.0012 6.45355 11.8687C6.584 11.7361 6.76092 11.6617 6.9454 11.6617H13.0387C13.1312 11.6598 13.2232 11.6767 13.3092 11.7114C13.3952 11.746 13.4735 11.7978 13.5396 11.8636C13.6057 11.9294 13.6582 12.008 13.694 12.0947C13.7298 12.1813 13.7483 12.2744 13.7482 12.3684ZM22.923 16.1355C22.9286 16.712 22.821 17.2839 22.6065 17.8176C22.3919 18.3529 22.0778 18.8412 21.6814 19.2559C21.2795 19.6824 20.7999 20.0256 20.2694 20.2666C19.7004 20.513 19.0862 20.6335 18.4678 20.6199C17.8414 20.6319 17.2202 20.5027 16.6488 20.2418C16.1236 19.996 15.6509 19.6478 15.2577 19.217C14.8699 18.793 14.5632 18.2992 14.3534 17.7611C14.1439 17.2282 14.0353 16.6599 14.0334 16.086C14.0373 15.5027 14.1555 14.9261 14.3812 14.3898C14.6018 13.8549 14.9178 13.3661 15.3133 12.948C15.7063 12.5324 16.1753 12.1987 16.694 11.9656C17.2625 11.7214 17.8751 11.601 18.4921 11.6122C19.1172 11.6024 19.7368 11.7314 20.3076 11.9903C20.8362 12.2351 21.3097 12.5875 21.6988 13.0257C22.0858 13.4537 22.3934 13.9494 22.6065 14.4887C22.8121 15.0128 22.9194 15.5713 22.923 16.1355ZM20.4885 16.0896C20.4879 15.7963 20.4457 15.5048 20.3633 15.2238C20.2789 14.9579 20.1495 14.7092 19.9807 14.4887C19.8145 14.2658 19.5972 14.0875 19.3477 13.9693C19.0691 13.8381 18.7644 13.774 18.4574 13.782C18.1477 13.7739 17.8408 13.843 17.5635 13.9834C17.3183 14.1118 17.1054 14.2955 16.941 14.5205C16.7723 14.7449 16.6482 15.0006 16.5758 15.2732C16.4995 15.5529 16.4608 15.8418 16.461 16.132C16.4599 16.4276 16.5021 16.7218 16.5862 17.0048C16.6633 17.277 16.7895 17.5322 16.9584 17.7575C17.1226 17.9814 17.3373 18.162 17.5844 18.2841C17.8665 18.4155 18.1731 18.4836 18.4834 18.4836C18.7938 18.4836 19.1004 18.4155 19.3825 18.2841C19.6311 18.1562 19.8449 17.9681 20.005 17.7363C20.1642 17.5033 20.2819 17.2438 20.3528 16.9695C20.4366 16.684 20.4788 16.3875 20.478 16.0896H20.4885Z" fill="#006FE6"/>
<path d="M8.51398 30.8433V33.2922C8.51398 33.4797 8.44069 33.6595 8.31024 33.792C8.17979 33.9245 8.00287 33.999 7.81839 33.999H7.10194C6.91745 33.999 6.74053 33.9245 6.61008 33.792C6.47963 33.6595 6.40635 33.4797 6.40635 33.2922V32.2816H0.695586C0.511105 32.2816 0.33418 32.2071 0.203732 32.0746C0.0732848 31.942 0 31.7622 0 31.5748V24.0619C0 23.8744 0.0732848 23.6947 0.203732 23.5621C0.33418 23.4296 0.511105 23.3551 0.695586 23.3551H1.73897C1.92345 23.3551 2.10037 23.4296 2.23082 23.5621C2.36127 23.6947 2.43455 23.8744 2.43455 24.0619V30.1471H4.8691V24.0619C4.8691 23.8744 4.94239 23.6947 5.07284 23.5621C5.20328 23.4296 5.38021 23.3551 5.56469 23.3551H6.60807C6.79255 23.3551 6.96947 23.4296 7.09992 23.5621C7.23037 23.6947 7.30366 23.8744 7.30366 24.0619V30.1471H7.85317C8.02977 30.1561 8.19638 30.2331 8.31912 30.3624C8.44187 30.4917 8.51154 30.6637 8.51398 30.8433ZM15.2055 30.1365H12.0476V28.723H14.5517C14.7361 28.723 14.9131 28.6485 15.0435 28.516C15.174 28.3834 15.2472 28.2037 15.2472 28.0162V27.4543C15.2472 27.2669 15.174 27.0871 15.0435 26.9546C14.9131 26.822 14.7361 26.7476 14.5517 26.7476H12.0476V25.5001H15.0942C15.2787 25.5001 15.4556 25.4257 15.5861 25.2931C15.7165 25.1606 15.7898 24.9808 15.7898 24.7934V24.0513C15.7898 23.8638 15.7165 23.6841 15.5861 23.5515C15.4556 23.419 15.2787 23.3445 15.0942 23.3445H10.326C10.1415 23.3445 9.96457 23.419 9.83412 23.5515C9.70368 23.6841 9.63039 23.8638 9.63039 24.0513V31.5819C9.63039 31.7693 9.70368 31.9491 9.83412 32.0816C9.96457 32.2142 10.1415 32.2886 10.326 32.2886H15.1951C15.3796 32.2886 15.5565 32.2142 15.6869 32.0816C15.8174 31.9491 15.8907 31.7693 15.8907 31.5819V30.8433C15.888 30.6595 15.8149 30.484 15.687 30.3541C15.5591 30.2241 15.3864 30.1499 15.2055 30.1471V30.1365ZM24.0916 23.3657H23.0482C22.8638 23.3657 22.6868 23.4402 22.5564 23.5727C22.4259 23.7053 22.3527 23.885 22.3527 24.0725V26.6663H19.4277V24.0619C19.4277 23.8744 19.3544 23.6947 19.224 23.5621C19.0935 23.4296 18.9166 23.3551 18.7321 23.3551H17.6888C17.5043 23.3551 17.3274 23.4296 17.1969 23.5621C17.0665 23.6947 16.9932 23.8744 16.9932 24.0619V31.5819C16.9932 31.7693 17.0665 31.9491 17.1969 32.0816C17.3274 32.2142 17.5043 32.2886 17.6888 32.2886H18.7321C18.9166 32.2886 19.0935 32.2142 19.224 32.0816C19.3544 31.9491 19.4277 31.7693 19.4277 31.5819V28.7901H22.3666V31.5819C22.3666 31.7693 22.4399 31.9491 22.5703 32.0816C22.7008 32.2142 22.8777 32.2886 23.0622 32.2886H24.1055C24.29 32.2886 24.4669 32.2142 24.5974 32.0816C24.7278 31.9491 24.8011 31.7693 24.8011 31.5819V24.0619C24.7998 23.9687 24.7803 23.8768 24.7439 23.7914C24.7074 23.7059 24.6547 23.6286 24.5888 23.5639C24.5229 23.4992 24.445 23.4484 24.3597 23.4144C24.2744 23.3804 24.1833 23.3638 24.0916 23.3657ZM32.4387 23.3657H26.3418C26.1574 23.3657 25.9804 23.4402 25.85 23.5727C25.7195 23.7053 25.6463 23.885 25.6463 24.0725V24.8146C25.6463 25.002 25.7195 25.1818 25.85 25.3143C25.9804 25.4469 26.1574 25.5213 26.3418 25.5213H28.1886V31.5819C28.1886 31.7693 28.2619 31.9491 28.3924 32.0816C28.5228 32.2142 28.6997 32.2886 28.8842 32.2886H29.9276C30.1121 32.2886 30.289 32.2142 30.4194 32.0816C30.5499 31.9491 30.6232 31.7693 30.6232 31.5819V25.5001H32.4561C32.6405 25.5001 32.8175 25.4257 32.9479 25.2931C33.0784 25.1606 33.1516 24.9808 33.1516 24.7934V24.0513C33.1489 23.9581 33.1282 23.8665 33.0905 23.7815C33.0528 23.6966 32.9989 23.62 32.932 23.5563C32.8651 23.4926 32.7865 23.443 32.7006 23.4103C32.6147 23.3775 32.5233 23.3624 32.4317 23.3657H32.4387ZM40.737 26.4543C40.7422 26.9738 40.6228 27.4869 40.3892 27.9491C40.1513 28.4127 39.802 28.8078 39.3737 29.0976C38.9259 29.3994 38.398 29.5548 37.8608 29.5428H36.4278V31.5819C36.4278 31.7693 36.3546 31.9491 36.2241 32.0816C36.0937 32.2142 35.9167 32.2886 35.7323 32.2886H34.6889C34.5044 32.2886 34.3275 32.2142 34.197 32.0816C34.0666 31.9491 33.9933 31.7693 33.9933 31.5819V24.0619C33.9933 23.8744 34.0666 23.6947 34.197 23.5621C34.3275 23.4296 34.5044 23.3551 34.6889 23.3551H37.7842C38.1942 23.351 38.5998 23.4416 38.9702 23.6201C39.3275 23.788 39.6471 24.0285 39.9093 24.3269C40.1711 24.62 40.3785 24.9588 40.5214 25.327C40.6628 25.6853 40.7337 26.0683 40.73 26.4543H40.737ZM38.3025 26.4543C38.3123 26.2543 38.2766 26.0548 38.1981 25.8712C38.1438 25.7488 38.0524 25.6472 37.9373 25.5814C37.8438 25.5313 37.7403 25.5035 37.6347 25.5001H36.4244V27.4084H37.6973C37.7988 27.4076 37.8978 27.3769 37.9825 27.3201C38.0853 27.2447 38.164 27.1403 38.2085 27.0197C38.2716 26.8385 38.2977 26.6461 38.2851 26.4543H38.3025Z" fill="#FF0007"/>
<path d="M15.3029 36.7519C13.3796 36.9392 11.8076 38.5718 11.4041 40.5861L10.9416 42.9008C10.9091 43.0628 10.8216 43.2081 10.6945 43.3114C10.5674 43.4147 10.4087 43.4695 10.246 43.4662H4.90736C4.73046 43.4665 4.56005 43.3984 4.43083 43.2757C4.30161 43.1529 4.22328 42.9847 4.21178 42.8053L3.86398 37.4127C3.85249 37.2333 3.77416 37.0652 3.64493 36.9424C3.51571 36.8196 3.34531 36.7515 3.1684 36.7519H1.08164C0.986362 36.7517 0.892058 36.7714 0.804577 36.8097C0.717096 36.8481 0.638303 36.9043 0.573084 36.9749C0.507865 37.0454 0.457611 37.1289 0.425438 37.22C0.393266 37.3111 0.37986 37.408 0.386054 37.5046L0.918177 45.742C0.924987 46.0692 1.05432 46.3815 1.27984 46.6152C1.50536 46.849 1.8101 46.9866 2.13198 47H12.6945C12.9823 46.9899 13.2578 46.8788 13.4741 46.6855C13.6903 46.4922 13.8339 46.2287 13.8804 45.9398L14.809 41.2893C14.8561 41.0008 14.9999 40.7377 15.2161 40.5445C15.4322 40.3513 15.7073 40.2399 15.995 40.2292H38.3512C38.6388 40.2399 38.914 40.3513 39.1301 40.5445C39.3462 40.7377 39.49 41.0008 39.5371 41.2893L40.4657 45.9398C40.5122 46.2287 40.6558 46.4922 40.8721 46.6855C41.0883 46.8788 41.3638 46.9899 41.6517 47H52.2142C52.5361 46.9866 52.8408 46.849 53.0663 46.6152C53.2918 46.3815 53.4212 46.0692 53.428 45.742L54.0123 36.7519C54.0123 36.7165 54.0123 36.6812 54.0123 36.6459L54.7948 24.5743C54.8814 23.3928 54.7235 22.206 54.3311 21.0903C53.9387 19.9747 53.3207 18.9549 52.5168 18.0968L50.43 15.5736C48.9693 13.6795 49.3379 14.0823 49.6996 13.948C52.2037 13.7148 54.3496 13.683 54.9165 11.9656C55.0687 11.4515 55.0417 10.8998 54.84 10.4036L54.4088 9.28338C54.3524 9.15145 54.2597 9.03889 54.1419 8.95926C54.024 8.87963 53.886 8.83634 53.7445 8.83459C53.4836 8.83459 53.2019 8.83459 53.1254 8.83459H52.1133C49.251 8.83459 49.4179 9.04662 49.2023 12.902C48.9774 12.8964 48.7594 12.8213 48.5774 12.6869C48.3954 12.5525 48.258 12.365 48.1833 12.1493C47.352 9.98662 46.6738 8.11015 46.0513 6.52699C46.0464 6.50055 46.0394 6.47455 46.0304 6.44925C44.8166 3.34654 43.7976 1.41353 42.243 0.629023L42.1525 0.583083L41.9369 0.491203L41.7734 0.434662C41.6795 0.402857 41.5821 0.37812 41.4813 0.353383L41.2726 0.307444L41.1091 0.282707C41.0013 0.282707 40.8935 0.25797 40.7822 0.250902C40.7822 0.250902 37.9512 0 27.6913 0H26.6479C16.395 0 13.5639 0.250902 13.5639 0.250902C13.4526 0.250902 13.3448 0.268571 13.237 0.282707L13.0735 0.307444L12.8683 0.353383C12.7675 0.37812 12.6701 0.402857 12.5762 0.434662L12.4127 0.491203L12.2006 0.583083L12.1067 0.629023C10.5486 1.41353 9.52953 3.34654 8.31574 6.41391C8.30673 6.43921 8.29975 6.46521 8.29487 6.49165C8.12445 6.92632 7.94708 7.38925 7.76622 7.86985C7.7249 7.97694 7.70993 8.09266 7.72261 8.20697C7.73529 8.32127 7.77523 8.43071 7.83897 8.52577C7.90272 8.62083 7.98833 8.69865 8.08839 8.75246C8.18844 8.80628 8.29991 8.83447 8.41312 8.83459H10.6529C10.7926 8.83444 10.9291 8.79155 11.0444 8.7115C11.1598 8.63146 11.2488 8.51795 11.2998 8.38579C11.3763 8.18436 11.4528 7.99 11.5259 7.80271C11.5572 7.7285 11.578 7.64722 11.6059 7.57301C12.9136 4.2406 13.2614 3.88722 14.2178 3.7706C14.2387 3.7706 19.699 3.58331 27.1731 3.5409C34.6472 3.58331 40.1075 3.7706 40.1284 3.7706C41.0848 3.88722 41.4326 4.2406 42.7403 7.57301C42.7681 7.64722 42.7925 7.7285 42.8203 7.80271C43.1681 8.64729 43.5159 9.61203 43.895 10.6298C44.2196 11.4967 44.5674 12.4191 44.9384 13.3968C45.0392 13.6583 45.154 13.9056 45.2861 14.1636C45.7752 15.1573 46.37 16.0934 47.0599 16.9553C47.2477 17.1921 47.4494 17.4465 47.6824 17.7505L47.759 17.8459L49.8457 20.369C49.9035 20.4407 49.965 20.5091 50.03 20.574C50.491 21.0751 50.8443 21.6681 51.0677 22.3154C51.291 22.9627 51.3794 23.6501 51.3273 24.334L50.5378 36.3985C50.5378 36.4868 50.5378 36.5752 50.5378 36.6671L50.1413 42.7983C50.1298 42.9776 50.0515 43.1458 49.9223 43.2686C49.7931 43.3914 49.6227 43.4595 49.4457 43.4591H44.0897C43.927 43.4624 43.7683 43.4077 43.6412 43.3044C43.5141 43.2011 43.4267 43.0557 43.3941 42.8937L42.9316 40.579C42.721 39.4938 42.1495 38.5153 41.3129 37.8075C40.4764 37.0997 39.4257 36.7058 38.3372 36.6918H27.1731C27.1731 36.6918 19.6086 36.6529 17.0871 36.6918C16.6384 36.7024 15.7446 36.7095 15.3029 36.7519Z" fill="url(#paint0_linear)"/>
<defs>
<linearGradient id="paint0_linear" x1="27.6913" y1="-0.282707" x2="27.6913" y2="51.9615" gradientUnits="userSpaceOnUse">
<stop stop-color="#006FE6"/>
<stop offset="0.92" stop-color="#FF0007"/>
</linearGradient>
</defs>
</svg>
