<svg width="11" height="6" viewBox="0 0 11 6" fill="none" xmlns="http://www.w3.org/2000/svg">
<path d="M5.60236 5.60125L10.2276 1.24C10.3346 1.13913 10.3936 1.00448 10.3936 0.860903C10.3936 0.717326 10.3346 0.582673 10.2276 0.481803L9.88704 0.160628C9.66514 -0.0483635 9.30449 -0.0483635 9.08293 0.160628L5.19895 3.82287L1.31067 0.156564C1.20361 0.0556938 1.06089 0 0.9087 0C0.756346 0 0.613625 0.0556938 0.506477 0.156564L0.166026 0.47774C0.0589638 0.57869 -1.71661e-05 0.713263 -1.71661e-05 0.85684C-1.71661e-05 1.00042 0.0589638 1.13507 0.166026 1.23594L4.79546 5.60125C4.90286 5.70236 5.04626 5.75789 5.1987 5.75758C5.35173 5.75789 5.49504 5.70236 5.60236 5.60125Z" fill="#6F6B6B"/>
</svg>
