<svg width="33" height="33" viewBox="0 0 33 33" fill="none" xmlns="http://www.w3.org/2000/svg">
<path d="M28.875 28.875V9.28125L19.5938 0H8.25C7.15598 0 6.10677 0.434597 5.33318 1.20818C4.5596 1.98177 4.125 3.03098 4.125 4.125V28.875C4.125 29.969 4.5596 31.0182 5.33318 31.7918C6.10677 32.5654 7.15598 33 8.25 33H24.75C25.844 33 26.8932 32.5654 27.6668 31.7918C28.4404 31.0182 28.875 29.969 28.875 28.875ZM19.5938 6.1875C19.5938 7.00801 19.9197 7.79492 20.4999 8.37511C21.0801 8.9553 21.867 9.28125 22.6875 9.28125H26.8125V28.875C26.8125 29.422 26.5952 29.9466 26.2084 30.3334C25.8216 30.7202 25.297 30.9375 24.75 30.9375H8.25C7.70299 30.9375 7.17839 30.7202 6.79159 30.3334C6.4048 29.9466 6.1875 29.422 6.1875 28.875V4.125C6.1875 3.57799 6.4048 3.05339 6.79159 2.66659C7.17839 2.2798 7.70299 2.0625 8.25 2.0625H19.5938V6.1875Z" fill="#BCBCBC"/>
<path d="M9.49369 29.0543C9.0917 28.8935 8.76782 28.5829 8.59032 28.188C8.18813 27.3878 8.32219 26.5875 8.75532 25.9152C9.16369 25.282 9.84019 24.7437 10.6054 24.292C11.5746 23.7423 12.5992 23.2964 13.662 22.9617C14.4874 21.4779 15.219 19.9438 15.8524 18.3685C15.4737 17.5079 15.1767 16.6137 14.9655 15.6975C14.7881 14.8725 14.7201 14.0558 14.8706 13.3545C15.0253 12.6244 15.4358 11.9685 16.2113 11.6571C16.6073 11.4983 17.0363 11.4096 17.4529 11.4983C17.6625 11.5429 17.8595 11.6336 18.0296 11.7638C18.1998 11.894 18.3388 12.0605 18.4367 12.2511C18.6182 12.5894 18.6842 12.9854 18.6986 13.3607C18.7131 13.7485 18.6739 14.1775 18.6017 14.6271C18.4284 15.679 18.0448 16.966 17.5292 18.3272C18.0982 19.5441 18.7746 20.7079 19.5504 21.8046C20.4685 21.7321 21.3918 21.7667 22.3018 21.9077C23.0526 22.0439 23.8157 22.3099 24.2818 22.8668C24.5293 23.1638 24.6799 23.5268 24.6943 23.9352C24.7088 24.3312 24.5974 24.723 24.4097 25.0964C24.2471 25.4423 23.995 25.7385 23.6796 25.9544C23.3677 26.1578 22.9996 26.2574 22.6277 26.239C21.945 26.2101 21.2788 25.8347 20.7034 25.3789C20.0037 24.8004 19.3732 24.1429 18.8244 23.4195C17.4297 23.5778 16.0515 23.858 14.7056 24.2569C14.0893 25.35 13.3858 26.3915 12.6019 27.3713C11.9996 28.0932 11.3458 28.7243 10.6899 28.9945C10.3131 29.165 9.88566 29.1863 9.49369 29.0543ZM12.3379 25.1335C11.9955 25.2902 11.6779 25.4552 11.3912 25.6244C10.7147 26.0245 10.2754 26.4143 10.0568 26.7525C9.86288 27.0516 9.85875 27.2682 9.97425 27.4971C9.99488 27.5425 10.0155 27.5714 10.0279 27.5879C10.0525 27.5813 10.0766 27.573 10.1001 27.5631C10.3826 27.4476 10.8323 27.0784 11.4098 26.3834C11.7382 25.9812 12.0479 25.5642 12.3379 25.1335ZM15.7204 22.3904C16.4091 22.2296 17.104 22.0968 17.8035 21.9923C17.428 21.4176 17.077 20.8272 16.7516 20.2227C16.4281 20.954 16.0842 21.6762 15.7204 22.3883V22.3904ZM20.7653 23.3185C21.0746 23.6547 21.3758 23.9372 21.6624 24.1641C22.1574 24.556 22.5019 24.6859 22.6896 24.6921C22.7398 24.6987 22.7908 24.6878 22.8339 24.6612C22.9197 24.5934 22.9865 24.5046 23.0278 24.4034C23.1011 24.2777 23.1429 24.1362 23.1495 23.9909C23.1483 23.9424 23.1292 23.8961 23.0959 23.8609C22.9886 23.733 22.6834 23.5474 22.0275 23.4299C21.6103 23.3601 21.1882 23.3235 20.7653 23.3205V23.3185ZM16.6609 16.0874C16.8345 15.5274 16.9722 14.957 17.0734 14.3796C17.1373 13.9919 17.1621 13.6722 17.1518 13.4205C17.1523 13.2817 17.13 13.1437 17.0858 13.0122C16.9826 13.0249 16.8818 13.0527 16.7867 13.0947C16.6073 13.1669 16.4608 13.3133 16.3824 13.6784C16.2999 14.0744 16.3206 14.6457 16.4773 15.3737C16.5268 15.6027 16.5887 15.8419 16.6629 16.0874H16.6609Z" fill="#BCBCBC"/>
</svg>
